# xmcd
# Track frame offsets:
# 150
# 12900
# 24952
# 35793
# 52692
# 64645
# 79198
# 90979
# 104478
# 115247
# 129802
# 145531
# 165033
#
# Disc length: 2357 seconds
# Revision: 0
# Processed by: cddbd v1.5.1PL0 Copyright (c) Steve Scherf et al.
# Submitted via: VisiTrax 2.9.10.228 - For more info visit www.synapsa.com
#
DISCID=8c09330d
DTITLE=Perrett. Dean and Kerri. - Keep On The Sunnyside.
DYEAR=2004
DGENRE=
TTITLE0=Keep On The Sunnyside.
TTITLE1=Steal Away and Pray.
TTITLE2=Keep Your Feet On The Ground.
TTITLE3=Jesus Gave All.
TTITLE4=Leaning On The Everlasting arms.
TTITLE5=Are You Afraid To Die?
TTITLE6=I'M Using My Bible For a Road Map.
TTITLE7=Master's Hand.The.
TTITLE8=No Greater Friend.
TTITLE9=Gone Home.
TTITLE10=Shepherd's Fold.The.
TTITLE11=Shelter Of The Cross.The.
TTITLE12=There's No telling.
EXTD=
EXTT0=
EXTT1=
EXTT2=
EXTT3=
EXTT4=
EXTT5=
EXTT6=
EXTT7=
EXTT8=
EXTT9=
EXTT10=
EXTT11=
EXTT12=
PLAYORDER=
